<svg style="vertical-align: -0.464ex;" xmlns="http://www.w3.org/2000/svg" width="37.311ex" height="1.783ex" role="img" focusable="false" viewBox="0 -583 16491.3 788" xmlns:xlink="http://www.w3.org/1999/xlink"><defs><path id="MJX-363-TEX-I-1D466" d="M21 287Q21 301 36 335T84 406T158 442Q199 442 224 419T250 355Q248 336 247 334Q247 331 231 288T198 191T182 105Q182 62 196 45T238 27Q261 27 281 38T312 61T339 94Q339 95 344 114T358 173T377 247Q415 397 419 404Q432 431 462 431Q475 431 483 424T494 412T496 403Q496 390 447 193T391 -23Q363 -106 294 -155T156 -205Q111 -205 77 -183T43 -117Q43 -95 50 -80T69 -58T89 -48T106 -45Q150 -45 150 -87Q150 -107 138 -122T115 -142T102 -147L99 -148Q101 -153 118 -160T152 -167H160Q177 -167 186 -165Q219 -156 247 -127T290 -65T313 -9T321 21L315 17Q309 13 296 6T270 -6Q250 -11 231 -11Q185 -11 150 11T104 82Q103 89 103 113Q103 170 138 262T173 379Q173 380 173 381Q173 390 173 393T169 400T158 404H154Q131 404 112 385T82 344T65 302T57 280Q55 278 41 278H27Q21 284 21 287Z"></path><path id="MJX-363-TEX-N-3D" d="M56 347Q56 360 70 367H707Q722 359 722 347Q722 336 708 328L390 327H72Q56 332 56 347ZM56 153Q56 168 72 173H708Q722 163 722 153Q722 140 707 133H70Q56 140 56 153Z"></path><path id="MJX-363-TEX-I-1D44E" d="M33 157Q33 258 109 349T280 441Q331 441 370 392Q386 422 416 422Q429 422 439 414T449 394Q449 381 412 234T374 68Q374 43 381 35T402 26Q411 27 422 35Q443 55 463 131Q469 151 473 152Q475 153 483 153H487Q506 153 506 144Q506 138 501 117T481 63T449 13Q436 0 417 -8Q409 -10 393 -10Q359 -10 336 5T306 36L300 51Q299 52 296 50Q294 48 292 46Q233 -10 172 -10Q117 -10 75 30T33 157ZM351 328Q351 334 346 350T323 385T277 405Q242 405 210 374T160 293Q131 214 119 129Q119 126 119 118T118 106Q118 61 136 44T179 26Q217 26 254 59T298 110Q300 114 325 217T351 328Z"></path><path id="MJX-363-TEX-N-30" d="M96 585Q152 666 249 666Q297 666 345 640T423 548Q460 465 460 320Q460 165 417 83Q397 41 362 16T301 -15T250 -22Q224 -22 198 -16T137 16T82 83Q39 165 39 320Q39 494 96 585ZM321 597Q291 629 250 629Q208 629 178 597Q153 571 145 525T137 333Q137 175 145 125T181 46Q209 16 250 16Q290 16 318 46Q347 76 354 130T362 333Q362 478 354 524T321 597Z"></path><path id="MJX-363-TEX-N-2B" d="M56 237T56 250T70 270H369V420L370 570Q380 583 389 583Q402 583 409 568V270H707Q722 262 722 250T707 230H409V-68Q401 -82 391 -82H389H387Q375 -82 369 -68V230H70Q56 237 56 250Z"></path><path id="MJX-363-TEX-N-31" d="M213 578L200 573Q186 568 160 563T102 556H83V602H102Q149 604 189 617T245 641T273 663Q275 666 285 666Q294 666 302 660V361L303 61Q310 54 315 52T339 48T401 46H427V0H416Q395 3 257 3Q121 3 100 0H88V46H114Q136 46 152 46T177 47T193 50T201 52T207 57T213 61V578Z"></path><path id="MJX-363-TEX-I-1D465" d="M52 289Q59 331 106 386T222 442Q257 442 286 424T329 379Q371 442 430 442Q467 442 494 420T522 361Q522 332 508 314T481 292T458 288Q439 288 427 299T415 328Q415 374 465 391Q454 404 425 404Q412 404 406 402Q368 386 350 336Q290 115 290 78Q290 50 306 38T341 26Q378 26 414 59T463 140Q466 150 469 151T485 153H489Q504 153 504 145Q504 144 502 134Q486 77 440 33T333 -11Q263 -11 227 52Q186 -10 133 -10H127Q78 -10 57 16T35 71Q35 103 54 123T99 143Q142 143 142 101Q142 81 130 66T107 46T94 41L91 40Q91 39 97 36T113 29T132 26Q168 26 194 71Q203 87 217 139T245 247T261 313Q266 340 266 352Q266 380 251 392T217 404Q177 404 142 372T93 290Q91 281 88 280T72 278H58Q52 284 52 289Z"></path><path id="MJX-363-TEX-N-32" d="M109 429Q82 429 66 447T50 491Q50 562 103 614T235 666Q326 666 387 610T449 465Q449 422 429 383T381 315T301 241Q265 210 201 149L142 93L218 92Q375 92 385 97Q392 99 409 186V189H449V186Q448 183 436 95T421 3V0H50V19V31Q50 38 56 46T86 81Q115 113 136 137Q145 147 170 174T204 211T233 244T261 278T284 308T305 340T320 369T333 401T340 431T343 464Q343 527 309 573T212 619Q179 619 154 602T119 569T109 550Q109 549 114 549Q132 549 151 535T170 489Q170 464 154 447T109 429Z"></path><path id="MJX-363-TEX-N-22EF" d="M78 250Q78 274 95 292T138 310Q162 310 180 294T199 251Q199 226 182 208T139 190T96 207T78 250ZM525 250Q525 274 542 292T585 310Q609 310 627 294T646 251Q646 226 629 208T586 190T543 207T525 250ZM972 250Q972 274 989 292T1032 310Q1056 310 1074 294T1093 251Q1093 226 1076 208T1033 190T990 207T972 250Z"></path><path id="MJX-363-TEX-I-1D458" d="M121 647Q121 657 125 670T137 683Q138 683 209 688T282 694Q294 694 294 686Q294 679 244 477Q194 279 194 272Q213 282 223 291Q247 309 292 354T362 415Q402 442 438 442Q468 442 485 423T503 369Q503 344 496 327T477 302T456 291T438 288Q418 288 406 299T394 328Q394 353 410 369T442 390L458 393Q446 405 434 405H430Q398 402 367 380T294 316T228 255Q230 254 243 252T267 246T293 238T320 224T342 206T359 180T365 147Q365 130 360 106T354 66Q354 26 381 26Q429 26 459 145Q461 153 479 153H483Q499 153 499 144Q499 139 496 130Q455 -11 378 -11Q333 -11 305 15T277 90Q277 108 280 121T283 145Q283 167 269 183T234 206T200 217T182 220H180Q168 178 159 139T145 81T136 44T129 20T122 7T111 -2Q98 -11 83 -11Q66 -11 57 -1T48 16Q48 26 85 176T158 471L195 616Q196 629 188 632T149 637H144Q134 637 131 637T124 640T121 647Z"></path><path id="MJX-363-TEX-I-1D452" d="M39 168Q39 225 58 272T107 350T174 402T244 433T307 442H310Q355 442 388 420T421 355Q421 265 310 237Q261 224 176 223Q139 223 138 221Q138 219 132 186T125 128Q125 81 146 54T209 26T302 45T394 111Q403 121 406 121Q410 121 419 112T429 98T420 82T390 55T344 24T281 -1T205 -11Q126 -11 83 42T39 168ZM373 353Q367 405 305 405Q272 405 244 391T199 357T170 316T154 280T149 261Q149 260 169 260Q282 260 327 284T373 353Z"></path></defs><g stroke="currentColor" fill="currentColor" stroke-width="0" transform="scale(1,-1)"><g data-mml-node="math"><g data-mml-node="mi"><use data-c="1D466" xlink:href="#MJX-363-TEX-I-1D466"></use></g><g data-mml-node="mo" transform="translate(767.8,0)"><use data-c="3D" xlink:href="#MJX-363-TEX-N-3D"></use></g><g data-mml-node="msub" transform="translate(1823.6,0)"><g data-mml-node="mi"><use data-c="1D44E" xlink:href="#MJX-363-TEX-I-1D44E"></use></g><g data-mml-node="mn" transform="translate(562,-150) scale(0.707)"><use data-c="30" xlink:href="#MJX-363-TEX-N-30"></use></g></g><g data-mml-node="mo" transform="translate(3011.3,0)"><use data-c="2B" xlink:href="#MJX-363-TEX-N-2B"></use></g><g data-mml-node="msub" transform="translate(4011.6,0)"><g data-mml-node="mi"><use data-c="1D44E" xlink:href="#MJX-363-TEX-I-1D44E"></use></g><g data-mml-node="mn" transform="translate(562,-150) scale(0.707)"><use data-c="31" xlink:href="#MJX-363-TEX-N-31"></use></g></g><g data-mml-node="msub" transform="translate(4977.1,0)"><g data-mml-node="mi"><use data-c="1D465" xlink:href="#MJX-363-TEX-I-1D465"></use></g><g data-mml-node="mn" transform="translate(605,-150) scale(0.707)"><use data-c="31" xlink:href="#MJX-363-TEX-N-31"></use></g></g><g data-mml-node="mo" transform="translate(6207.9,0)"><use data-c="2B" xlink:href="#MJX-363-TEX-N-2B"></use></g><g data-mml-node="msub" transform="translate(7208.1,0)"><g data-mml-node="mi"><use data-c="1D44E" xlink:href="#MJX-363-TEX-I-1D44E"></use></g><g data-mml-node="mn" transform="translate(562,-150) scale(0.707)"><use data-c="32" xlink:href="#MJX-363-TEX-N-32"></use></g></g><g data-mml-node="msub" transform="translate(8173.7,0)"><g data-mml-node="mi"><use data-c="1D465" xlink:href="#MJX-363-TEX-I-1D465"></use></g><g data-mml-node="mn" transform="translate(605,-150) scale(0.707)"><use data-c="32" xlink:href="#MJX-363-TEX-N-32"></use></g></g><g data-mml-node="mo" transform="translate(9404.4,0)"><use data-c="2B" xlink:href="#MJX-363-TEX-N-2B"></use></g><g data-mml-node="mo" transform="translate(10404.7,0)"><use data-c="22EF" xlink:href="#MJX-363-TEX-N-22EF"></use></g><g data-mml-node="mo" transform="translate(11798.9,0)"><use data-c="2B" xlink:href="#MJX-363-TEX-N-2B"></use></g><g data-mml-node="msub" transform="translate(12799.1,0)"><g data-mml-node="mi"><use data-c="1D44E" xlink:href="#MJX-363-TEX-I-1D44E"></use></g><g data-mml-node="mi" transform="translate(562,-150) scale(0.707)"><use data-c="1D458" xlink:href="#MJX-363-TEX-I-1D458"></use></g></g><g data-mml-node="msub" transform="translate(13779.5,0)"><g data-mml-node="mi"><use data-c="1D465" xlink:href="#MJX-363-TEX-I-1D465"></use></g><g data-mml-node="mi" transform="translate(605,-150) scale(0.707)"><use data-c="1D458" xlink:href="#MJX-363-TEX-I-1D458"></use></g></g><g data-mml-node="mo" transform="translate(15025.1,0)"><use data-c="2B" xlink:href="#MJX-363-TEX-N-2B"></use></g><g data-mml-node="mi" transform="translate(16025.3,0)"><use data-c="1D452" xlink:href="#MJX-363-TEX-I-1D452"></use></g></g></g></svg>
